<svg xmlns="http://www.w3.org/2000/svg" width="595.28" height="841.89" viewBox="0 0 595.28 841.89"><circle cx="399.23" cy="735.89" r="90.86" fill="#855ff2"/><circle cx="194.9" cy="104.7" r="90.66" fill="#855ff2"/><circle cx="194.9" cy="320.04" r="90.66" fill="#855ff2"/><circle cx="400.28" cy="322.89" r="90.66" fill="#855ff2"/><circle cx="196.58" cy="532.43" r="90.66" fill="#855ff2"/><circle cx="400.37" cy="105.8" r="90.66" fill="#855ff2"/><polyline points="153.57 51.29 222.41 51.29 205.72 72.44 153.57 72.44" fill="#fff"/><path d="M157.89,139.08l-4.59-3.5,69.11-84.29,8.31.05" fill="#fff"/><circle cx="155.6" cy="137.35" r="2.88" fill="#fff"/><circle cx="150.43" cy="143.4" r="2.88" fill="#fff"/><polyline points="229.88 158.11 161.04 158.11 177.73 136.96 229.88 136.96" fill="#fff"/><path d="M225.55,70.32l4.59,3.5L161,158.11l-8.32-.05" fill="#fff"/><circle cx="233.02" cy="66" r="2.88" fill="#fff"/><polyline points="348.46 68.5 442.12 68.5 419.41 82.79 348.46 82.79" fill="#fff"/><path d="M351.31,129.12a2.68,2.68,0,0,1-3.94-.41,2.62,2.62,0,0,1,.73-3.27l94-56.94,11.32,0" fill="#fff"/><circle cx="344.22" cy="131.23" r="2.29" fill="#fff"/><polyline points="452.29 140.66 358.62 140.66 381.33 126.37 452.29 126.37" fill="#fff"/><path d="M446.4,81.36c1.78-1.14,3.87-.48,4.47.8a2.89,2.89,0,0,1-.79,3.11l-91.46,55.39-11.31,0" fill="#fff"/><circle cx="454" cy="78.84" r="2.42" fill="#fff"/><circle cx="173" cy="594.15" r="3.18" fill="#fff"/><circle cx="167.08" cy="600.67" r="3.18" fill="#fff"/><polygon points="157.88 266.63 237.18 266.63 237.18 286.87 214.43 314 186.68 314 209.01 287.29 157.88 286.66 157.88 266.63" fill="#fff"/><circle cx="226.23" cy="316" r="2.01" fill="#fff"/><circle cx="232.35" cy="316.01" r="2.01" fill="#fff"/><path d="M226.23,318H183.28l3.4-4h39.55Z" fill="#fff"/><polygon points="234.28 373.45 154.98 373.15 155.06 352.91 177.9 325.87 205.66 325.97 183.23 352.6 234.35 353.41 234.28 373.45" fill="#fff"/><circle cx="166.12" cy="323.82" r="2.01" fill="#fff"/><circle cx="160" cy="323.79" r="2.01" fill="#fff"/><path d="M166.12,321.81l42.95.15-3.41,4-39.55-.14Z" fill="#fff"/><polygon points="350.17 278.75 458.3 278.75 458.3 295.48 427.29 317.9 389.44 317.9 419.89 295.82 350.17 295.31 350.17 278.75" fill="#fff"/><circle cx="445.67" cy="317.89" r="1.66" fill="#fff"/><circle cx="450.92" cy="317.9" r="1.66" fill="#fff"/><path d="M445.67,319.54H387.1l4.64-3.32h53.93Z" fill="#fff"/><polygon points="454.35 367.04 346.22 366.8 346.32 350.06 377.47 327.71 415.32 327.8 384.74 349.81 454.45 350.48 454.35 367.04" fill="#fff"/><circle cx="358.25" cy="328.31" r="1.66" fill="#fff"/><circle cx="353.06" cy="328.31" r="1.66" fill="#fff"/><path d="M358.27,326.65l58.57.13-4.66,3.31L358.25,330Z" fill="#fff"/><polyline points="158.38 480.33 158.38 499.71 208.96 499.71 156.62 562.84 156.62 583.78 179.74 583.78 201.66 562.6 185.34 562.84 236.54 499.21 236.54 480.33" fill="#fff"/><polygon points="201.66 562.6 208.44 562.6 174.75 596.8 171.21 591.53 201.66 562.6" fill="#fff"/><circle cx="229.55" cy="552.23" r="3.18" fill="#fff"/><circle cx="235.47" cy="545.71" r="3.18" fill="#fff"/><polygon points="200.89 583.78 194.12 583.78 227.8 549.58 231.34 554.85 200.89 583.78" fill="#fff"/><polyline points="223.18 562.6 238.27 562.6 238.27 583.78 200.89 583.78" fill="#fff"/><circle cx="397.7" cy="533.53" r="90.66" fill="#855ff2"/><polyline points="349.26 488.38 349.26 504.3 416.77 504.3 346.91 556.16 346.91 573.36 377.78 573.36 407.02 555.96 385.25 556.16 453.57 503.88 453.57 488.38" fill="#fff"/><path d="M405.32,556h9l-44.95,28.1a3.55,3.55,0,0,1-5.22-.26,3.44,3.44,0,0,1,.49-4.08Z" fill="#fff"/><circle cx="450.74" cy="542.31" r="2.84" fill="#fff"/><path d="M406,573.36h-9l45-28.1a3.55,3.55,0,0,1,5,.73,3.35,3.35,0,0,1-.36,3.64Z" fill="#fff"/><polyline points="435.75 555.96 455.88 555.96 455.88 573.36 406 573.36" fill="#fff"/><circle cx="197.04" cy="736.99" r="90.86" fill="#855ff2"/><path d="M209.68,703.69,157,767.47h28.8l51.3-63.78" fill="#fff"/><rect x="156.99" y="767.47" width="63.1" height="18.61" fill="#fff"/><rect x="165.62" y="685.08" width="71.47" height="18.61" fill="#fff"/><circle cx="220.09" cy="776.78" r="9.31" fill="#855ff2"/><circle cx="227.79" cy="776.78" r="9.31" fill="#fff"/><path d="M415.21,708.3l-69.44,55.17h38l67.62-55.17" fill="#fff"/><rect x="345.77" y="763.47" width="83.16" height="16.1" fill="#fff"/><rect x="355.37" y="692.2" width="95.97" height="16.1" fill="#fff"/><circle cx="428.94" cy="771.52" r="8.05" fill="#855ff2"/><circle cx="435.32" cy="771.52" r="8.05" fill="#fff"/><circle cx="360.05" cy="587.01" r="2.84" fill="#fff"/><circle cx="227.87" cy="72.04" r="2.9" fill="#fff"/><path d="M51.52,115.76H44.14V87.31L35.33,90V84l15.4-5.51h.79Z"/><path d="M552.39,115.76H526.9V110.7l12-12.82a29.16,29.16,0,0,0,3.66-4.72,7.49,7.49,0,0,0,1.19-3.83,5.68,5.68,0,0,0-1.25-3.89A4.5,4.5,0,0,0,539,84a4.87,4.87,0,0,0-4,1.72,6.85,6.85,0,0,0-1.44,4.54h-7.41a12.19,12.19,0,0,1,1.62-6.21,11.45,11.45,0,0,1,4.59-4.4,13.84,13.84,0,0,1,6.71-1.6q5.74,0,8.93,2.76a9.75,9.75,0,0,1,3.18,7.79,12.52,12.52,0,0,1-1.43,5.61,31.37,31.37,0,0,1-4.91,6.67l-8.45,8.91h16Z"/><path d="M41.11,305.86H45a5.52,5.52,0,0,0,4.16-1.41,5.15,5.15,0,0,0,1.35-3.73,4.54,4.54,0,0,0-1.34-3.5A5.2,5.2,0,0,0,45.52,296,5.44,5.44,0,0,0,42,297.14a3.71,3.71,0,0,0-1.43,3H33.16a9.12,9.12,0,0,1,1.57-5.22,10.45,10.45,0,0,1,4.4-3.61A14.61,14.61,0,0,1,45.34,290q5.91,0,9.25,2.83a9.61,9.61,0,0,1,3.34,7.77,7.88,7.88,0,0,1-1.55,4.7,10.12,10.12,0,0,1-4.09,3.29A9.36,9.36,0,0,1,57,312a9.22,9.22,0,0,1,1.54,5.31,9.8,9.8,0,0,1-3.61,7.95q-3.61,3-9.57,3a13.81,13.81,0,0,1-9.1-2.93,9.6,9.6,0,0,1-3.54-7.77h7.38A4.31,4.31,0,0,0,41.65,321a5.82,5.82,0,0,0,3.87,1.32,5.82,5.82,0,0,0,4.13-1.39,4.83,4.83,0,0,0,1.49-3.69q0-5.56-6.13-5.56h-3.9Z"/><path d="M548.74,316.1H553v5.95h-4.21v8h-7.38v-8H526.11l-.33-4.65,15.5-24.49h7.46Zm-15.61,0h8.23V303l-.49.84Z"/><path d="M34.7,531.29l2.14-18.89H57.68v6.15H42.89l-.92,8a11.8,11.8,0,0,1,5.6-1.4,10.73,10.73,0,0,1,8.32,3.29q3,3.3,3,9.22a13.41,13.41,0,0,1-1.52,6.45A10.71,10.71,0,0,1,53,548.52a13.67,13.67,0,0,1-6.69,1.57,14.47,14.47,0,0,1-6.26-1.37,11.06,11.06,0,0,1-4.55-3.84,10.47,10.47,0,0,1-1.78-5.65h7.3a5.5,5.5,0,0,0,1.63,3.62,5.12,5.12,0,0,0,3.63,1.29,4.54,4.54,0,0,0,3.86-1.8,8.37,8.37,0,0,0,1.35-5.1A6.92,6.92,0,0,0,50,532.39a5.75,5.75,0,0,0-4.42-1.69,6.39,6.39,0,0,0-4.27,1.38l-.71.67Z"/><path d="M546.92,512v6.08h-.71a12.52,12.52,0,0,0-8.06,2.61,10.58,10.58,0,0,0-3.66,7,10,10,0,0,1,7.48-3,9.47,9.47,0,0,1,7.71,3.48,13.89,13.89,0,0,1,2.86,9.14,13.65,13.65,0,0,1-1.57,6.56,11.29,11.29,0,0,1-4.44,4.57,12.92,12.92,0,0,1-6.5,1.64,12.07,12.07,0,0,1-9.49-4.09q-3.62-4.08-3.61-10.9v-2.66a23.9,23.9,0,0,1,2.28-10.68,16.81,16.81,0,0,1,6.57-7.18A19.27,19.27,0,0,1,545.7,512Zm-7.2,18.64a5.89,5.89,0,0,0-3.24.93,5.62,5.62,0,0,0-2.15,2.46v2.25a10,10,0,0,0,1.46,5.77,4.72,4.72,0,0,0,4.09,2.08,4.65,4.65,0,0,0,3.84-1.88,8.79,8.79,0,0,0,0-9.75A4.84,4.84,0,0,0,539.72,530.65Z"/><path d="M58.88,728.47,44.5,761.53H36.71l14.4-31.23H32.63v-5.95H58.88Z"/><path d="M551.14,736.61a8.69,8.69,0,0,1-1.36,4.8,9.61,9.61,0,0,1-3.73,3.34,10.76,10.76,0,0,1,4.29,3.59,9.2,9.2,0,0,1,1.59,5.38,9.75,9.75,0,0,1-3.37,7.82q-3.37,2.88-9.17,2.88t-9.19-2.89a9.7,9.7,0,0,1-3.4-7.81,9.3,9.3,0,0,1,1.58-5.39,10.72,10.72,0,0,1,4.27-3.58,9.65,9.65,0,0,1-3.72-3.34,8.76,8.76,0,0,1-1.34-4.8,9.63,9.63,0,0,1,3.17-7.57q3.16-2.82,8.6-2.82T548,729A9.61,9.61,0,0,1,551.14,736.61Zm-6.62,16.57a5.37,5.37,0,0,0-1.4-3.88,5.61,5.61,0,0,0-7.54,0,6.05,6.05,0,0,0,0,7.72,5.75,5.75,0,0,0,7.6,0A5.32,5.32,0,0,0,544.52,753.18ZM543.76,737a5.15,5.15,0,0,0-1.15-3.49,4.69,4.69,0,0,0-6.46,0A5.07,5.07,0,0,0,535,737a5.3,5.3,0,0,0,1.15,3.57,4.55,4.55,0,0,0,6.47,0A5.35,5.35,0,0,0,543.76,737Z"/></svg>