<svg xmlns="http://www.w3.org/2000/svg" width="181.32" height="181.32" viewBox="0 0 181.32 181.32"><circle cx="90.66" cy="90.66" r="90.66" fill="#855ff2"/><circle cx="67.08" cy="152.38" r="3.18" fill="#fff"/><circle cx="61.16" cy="158.9" r="3.18" fill="#fff"/><polyline points="52.46 38.56 52.46 57.94 103.04 57.94 50.7 121.08 50.7 142.02 73.83 142.02 95.74 120.83 79.43 121.08 130.62 57.44 130.62 38.56" fill="#fff"/><polygon points="95.74 120.83 102.52 120.83 68.83 155.04 65.29 149.76 95.74 120.83" fill="#fff"/><circle cx="123.63" cy="110.46" r="3.18" fill="#fff"/><circle cx="129.55" cy="103.94" r="3.18" fill="#fff"/><polygon points="94.97 142.01 88.2 142.02 121.88 107.81 125.42 113.08 94.97 142.01" fill="#fff"/><polyline points="117.27 120.83 132.35 120.83 132.35 142.02 94.97 142.01" fill="#fff"/></svg>