<svg xmlns="http://www.w3.org/2000/svg" width="181.32" height="181.32" viewBox="0 0 181.32 181.32"><circle cx="90.66" cy="90.66" r="90.66" fill="#855ff2"/><polygon points="53.64 37.25 132.94 37.25 132.94 57.49 110.19 84.62 82.44 84.62 104.76 57.91 53.64 57.28 53.64 37.25" fill="#fff"/><circle cx="121.98" cy="86.62" r="2.01" fill="#fff"/><circle cx="128.1" cy="86.63" r="2.01" fill="#fff"/><path d="M122,88.63H79l3.41-4H122Z" fill="#fff"/><polygon points="130.04 144.07 50.74 143.78 50.81 123.54 73.66 96.49 101.41 96.59 78.98 123.22 130.11 124.03 130.04 144.07" fill="#fff"/><circle cx="61.87" cy="94.44" r="2.01" fill="#fff"/><circle cx="55.75" cy="94.41" r="2.01" fill="#fff"/><path d="M61.88,92.44l42.95.14-3.42,4-39.55-.14Z" fill="#fff"/></svg>