<svg xmlns="http://www.w3.org/2000/svg" width="181.32" height="181.32" viewBox="0 0 181.32 181.32"><circle cx="90.66" cy="90.66" r="90.66" fill="#855ff2"/><polygon points="40.55 46.51 148.68 46.51 148.68 63.24 117.66 85.67 79.81 85.67 110.26 63.59 40.55 63.07 40.55 46.51" fill="#fff"/><circle cx="136.04" cy="85.66" r="1.66" fill="#fff"/><circle cx="141.29" cy="85.67" r="1.66" fill="#fff"/><path d="M136,87.31H77.48L82.12,84H136Z" fill="#fff"/><polygon points="144.72 134.8 36.59 134.56 36.7 117.83 67.85 95.48 105.69 95.56 75.11 117.57 144.82 118.25 144.72 134.8" fill="#fff"/><circle cx="48.63" cy="96.08" r="1.66" fill="#fff"/><circle cx="43.43" cy="96.08" r="1.66" fill="#fff"/><path d="M48.65,94.42l58.56.12-4.66,3.32-53.92-.12Z" fill="#fff"/></svg>