<svg xmlns="http://www.w3.org/2000/svg" width="181.32" height="181.32" viewBox="0 0 181.32 181.32"><circle cx="90.66" cy="90.66" r="90.66" fill="#855ff2"/><polyline points="38.74 53.36 132.41 53.36 109.7 67.64 38.74 67.64" fill="#fff"/><path d="M41.59,114a2.66,2.66,0,0,1-3.94-.41,2.62,2.62,0,0,1,.73-3.26l94-56.94,11.31,0" fill="#fff"/><circle cx="34.5" cy="116.09" r="2.29" fill="#fff"/><polyline points="142.57 125.52 48.91 125.52 71.62 111.23 142.57 111.23" fill="#fff"/><path d="M136.69,66.21c1.77-1.14,3.87-.48,4.47.81a2.9,2.9,0,0,1-.8,3.11L48.91,125.52l-11.31,0" fill="#fff"/><circle cx="144.29" cy="63.69" r="2.42" fill="#fff"/></svg>