<svg xmlns="http://www.w3.org/2000/svg" width="181.32" height="181.32" viewBox="0 0 181.32 181.32"><circle cx="90.66" cy="90.66" r="90.66" fill="#855ff2"/><polyline points="42.22 45.51 42.22 61.43 109.73 61.43 39.87 113.29 39.87 130.49 70.74 130.49 99.98 113.09 78.21 113.29 146.53 61.02 146.53 45.51" fill="#fff"/><path d="M98.27,113.09h9l-45,28.1a3.55,3.55,0,0,1-5.22-.26,3.44,3.44,0,0,1,.5-4.07Z" fill="#fff"/><circle cx="143.7" cy="99.44" r="2.84" fill="#fff"/><path d="M99,130.49h-9l45-28.1a3.54,3.54,0,0,1,5,.74,3.36,3.36,0,0,1-.36,3.64Z" fill="#fff"/><polyline points="128.71 113.09 148.84 113.09 148.84 130.49 98.96 130.49" fill="#fff"/><circle cx="53.01" cy="144.14" r="2.84" fill="#fff"/></svg>