<svg xmlns="http://www.w3.org/2000/svg" width="595.28" height="841.89" viewBox="0 0 595.28 841.89"><circle cx="399.23" cy="735.89" r="90.86" fill="#855ff2"/><circle cx="194.9" cy="104.7" r="90.66" fill="#855ff2"/><circle cx="194.9" cy="320.04" r="90.66" fill="#855ff2"/><circle cx="400.28" cy="322.89" r="90.66" fill="#855ff2"/><circle cx="196.58" cy="532.43" r="90.66" fill="#855ff2"/><circle cx="400.37" cy="105.8" r="90.66" fill="#855ff2"/><polyline points="153.57 51.29 222.41 51.29 205.72 72.44 153.57 72.44" fill="#fff"/><path d="M157.89,139.08l-4.59-3.5,69.11-84.29,8.31.05" fill="#fff"/><circle cx="155.6" cy="137.35" r="2.88" fill="#fff"/><circle cx="150.43" cy="143.4" r="2.88" fill="#fff"/><polyline points="229.88 158.11 161.04 158.11 177.73 136.96 229.88 136.96" fill="#fff"/><path d="M225.55,70.32l4.59,3.5L161,158.11l-8.32-.05" fill="#fff"/><circle cx="233.02" cy="66" r="2.88" fill="#fff"/><polyline points="348.46 68.5 442.12 68.5 419.41 82.79 348.46 82.79" fill="#fff"/><path d="M351.31,129.12a2.68,2.68,0,0,1-3.94-.41,2.62,2.62,0,0,1,.73-3.27l94-56.94,11.32,0" fill="#fff"/><circle cx="344.22" cy="131.23" r="2.29" fill="#fff"/><polyline points="452.29 140.66 358.62 140.66 381.33 126.37 452.29 126.37" fill="#fff"/><path d="M446.4,81.36c1.78-1.14,3.87-.48,4.47.8a2.89,2.89,0,0,1-.79,3.11l-91.46,55.39-11.31,0" fill="#fff"/><circle cx="454" cy="78.84" r="2.42" fill="#fff"/><circle cx="173" cy="594.15" r="3.18" fill="#fff"/><circle cx="167.08" cy="600.67" r="3.18" fill="#fff"/><polygon points="157.88 266.63 237.18 266.63 237.18 286.87 214.43 314 186.68 314 209.01 287.29 157.88 286.66 157.88 266.63" fill="#fff"/><circle cx="226.23" cy="316" r="2.01" fill="#fff"/><circle cx="232.35" cy="316.01" r="2.01" fill="#fff"/><path d="M226.23,318H183.28l3.4-4h39.55Z" fill="#fff"/><polygon points="234.28 373.45 154.98 373.15 155.06 352.91 177.9 325.87 205.66 325.97 183.23 352.6 234.35 353.41 234.28 373.45" fill="#fff"/><circle cx="166.12" cy="323.82" r="2.01" fill="#fff"/><circle cx="160" cy="323.79" r="2.01" fill="#fff"/><path d="M166.12,321.81l42.95.15-3.41,4-39.55-.14Z" fill="#fff"/><polygon points="350.17 278.75 458.3 278.75 458.3 295.48 427.29 317.9 389.44 317.9 419.89 295.82 350.17 295.31 350.17 278.75" fill="#fff"/><circle cx="445.67" cy="317.89" r="1.66" fill="#fff"/><circle cx="450.92" cy="317.9" r="1.66" fill="#fff"/><path d="M445.67,319.54H387.1l4.64-3.32h53.93Z" fill="#fff"/><polygon points="454.35 367.04 346.22 366.8 346.32 350.06 377.47 327.71 415.32 327.8 384.74 349.81 454.45 350.48 454.35 367.04" fill="#fff"/><circle cx="358.25" cy="328.31" r="1.66" fill="#fff"/><circle cx="353.06" cy="328.31" r="1.66" fill="#fff"/><path d="M358.27,326.65l58.57.13-4.66,3.31L358.25,330Z" fill="#fff"/><polyline points="158.38 480.33 158.38 499.71 208.96 499.71 156.62 562.84 156.62 583.78 179.74 583.78 201.66 562.6 185.34 562.84 236.54 499.21 236.54 480.33" fill="#fff"/><polygon points="201.66 562.6 208.44 562.6 174.75 596.8 171.21 591.53 201.66 562.6" fill="#fff"/><circle cx="229.55" cy="552.23" r="3.18" fill="#fff"/><circle cx="235.47" cy="545.71" r="3.18" fill="#fff"/><polygon points="200.89 583.78 194.12 583.78 227.8 549.58 231.34 554.85 200.89 583.78" fill="#fff"/><polyline points="223.18 562.6 238.27 562.6 238.27 583.78 200.89 583.78" fill="#fff"/><circle cx="397.7" cy="533.53" r="90.66" fill="#855ff2"/><polyline points="349.26 488.38 349.26 504.3 416.77 504.3 346.91 556.16 346.91 573.36 377.78 573.36 407.02 555.96 385.25 556.16 453.57 503.88 453.57 488.38" fill="#fff"/><path d="M405.32,556h9l-44.95,28.1a3.55,3.55,0,0,1-5.22-.26,3.44,3.44,0,0,1,.49-4.08Z" fill="#fff"/><circle cx="450.74" cy="542.31" r="2.84" fill="#fff"/><path d="M406,573.36h-9l45-28.1a3.55,3.55,0,0,1,5,.73,3.35,3.35,0,0,1-.36,3.64Z" fill="#fff"/><polyline points="435.75 555.96 455.88 555.96 455.88 573.36 406 573.36" fill="#fff"/><circle cx="197.04" cy="736.99" r="90.86" fill="#855ff2"/><path d="M209.68,703.69,157,767.47h28.8l51.3-63.78" fill="#fff"/><rect x="156.99" y="767.47" width="63.1" height="18.61" fill="#fff"/><rect x="165.62" y="685.08" width="71.47" height="18.61" fill="#fff"/><circle cx="220.09" cy="776.78" r="9.31" fill="#855ff2"/><circle cx="227.79" cy="776.78" r="9.31" fill="#fff"/><path d="M415.21,708.3l-69.44,55.17h38l67.62-55.17" fill="#fff"/><rect x="345.77" y="763.47" width="83.16" height="16.1" fill="#fff"/><rect x="355.37" y="692.2" width="95.97" height="16.1" fill="#fff"/><circle cx="428.94" cy="771.52" r="8.05" fill="#855ff2"/><circle cx="435.32" cy="771.52" r="8.05" fill="#fff"/><circle cx="360.05" cy="587.01" r="2.84" fill="#fff"/><circle cx="227.87" cy="72.04" r="2.9" fill="#fff"/><text transform="translate(31.07 115.76)" font-size="52.29" font-family="MyriadPro-Regular, Myriad Pro">1</text><text transform="translate(524.38 115.76)" font-size="52.29" font-family="MyriadPro-Regular, Myriad Pro">2</text><text transform="translate(31.07 327.71)" font-size="52.29" font-family="MyriadPro-Regular, Myriad Pro">3</text><text transform="translate(524.38 330.09)" font-size="52.29" font-family="MyriadPro-Regular, Myriad Pro">4</text><text transform="translate(31.07 549.57)" font-size="52.29" font-family="MyriadPro-Regular, Myriad Pro">5</text><text transform="translate(524.38 549.57)" font-size="52.29" font-family="MyriadPro-Regular, Myriad Pro">6</text><text transform="translate(31.07 761.53)" font-size="52.29" font-family="MyriadPro-Regular, Myriad Pro">7</text><text transform="translate(524.38 763.91)" font-size="52.29" font-family="MyriadPro-Regular, Myriad Pro">8</text></svg>